<?xml version="1.0" encoding="utf-8"?>
<!-- Generator: Adobe Illustrator 21.0.0, SVG Export Plug-In . SVG Version: 6.00 Build 0)  -->
<svg version="1.1" id="Livello_1" xmlns="http://www.w3.org/2000/svg" xmlns:xlink="http://www.w3.org/1999/xlink" x="0px" y="0px"
	 viewBox="0 0 510.4 350.5" style="enable-background:new 0 0 510.4 350.5;" xml:space="preserve">
<style type="text/css">
	.st0{fill:#01A0C6;}
	.st1{fill-rule:evenodd;clip-rule:evenodd;}
</style>
<g>
	<path d="M510.1,108.1c0,72.1-58.5,130.5-130.5,130.5c-72.1,0-130.5-58.4-130.5-130.5H510.1z"/>
	<path class="st0" d="M379.6,293.3c-102.3,0-185.2-82.9-185.2-185.2h43c0,78.5,63.7,142.2,142.2,142.2V293.3z"/>
	<path d="M0,293.3c102.3,0,185.2-82.9,185.2-185.2h-43c0,78.5-63.7,142.2-142.2,142.2V293.3z"/>
</g>
<g>
	<path d="M31.9,21.1H8.2v12.1H32c3.3,0,6.1-2.7,6.1-6S35.4,21.1,31.9,21.1z M44.9,0c14.3,0,25.8,11.6,25.8,25.9
		c0,8.9-4.5,16.8-11.4,21.5c0,0,7.6,3.3,7.8,11.5c0.2,8.2,0,29.7,0,29.7H39.1V60.3c0-4.3-4.5-5.4-9.3-5.4H8.2v33.6H0.6V0H44.9
		L44.9,0z"/>
	<path class="st1" d="M266.1,55l14.8,0l-7.4-30.8L266.1,55z M228.1,88.5l30-88.5h30.7l30.1,88.5h-29.9l-2.9-12l-25.1,0l-2.8,12
		H228.1z"/>
	<path d="M193.3,21.1h-23.7v12.1h23.8c3.3,0,6-2.7,6-6S196.8,21.1,193.3,21.1z M206.3,0c14.3,0,25.8,11.6,25.8,25.9
		c0,8.9-4.5,16.8-11.4,21.5c0,0,7.6,3.3,7.8,11.5c0.2,8.2,0,29.7,0,29.7h-27.9V60.3c0-4.3-4.5-5.4-9.3-5.4h-21.7v33.6H162V0H206.3
		L206.3,0z"/>
	<path class="st1" d="M457.6,55l14.8,0l-7.4-30.8L457.6,55z M419.6,88.5l30-88.5h30.7l30.1,88.5h-29.9l-2.9-12l-25.1,0l-2.8,12
		H419.6z"/>
	<g>
		<polygon points="74.9,33.2 102.8,33.2 102.8,88.5 74.9,88.5 		"/>
		<rect x="74.9" y="0" width="27.9" height="21.2"/>
	</g>
	<path d="M112.7,0h27.9v21.2h16.6v11.9h-16.6v26.9c0,3,1.1,5,4.1,5h12.6v23.4h-21c-13,0-23.5-10.4-23.5-23.4v-32h-9.9V21.2h9.9V0z"
		/>
	<g>
		<rect x="355.9" y="30.7" width="26.6" height="57.9"/>
		<path d="M318.5,0h27.7h48.4h1.8c13,0,23.5,10.4,23.5,23.4c0,0-0.2,21.4,0,21.4v43.8h-27.8v-49V26.2c0-3-1.1-5-4.1-5h-22.7h-19
			v67.3h-27.7V21.2V0z"/>
	</g>
</g>
<g>
	<path d="M18.7,342.9c0,2.4-0.9,4.3-2.7,5.7s-4.4,2-7.7,2c-3.5,0-6.2-0.6-8.2-1.7v-3.7c1.3,0.6,2.6,1.1,4.1,1.5
		c1.4,0.4,2.8,0.6,4.2,0.6c2.1,0,3.7-0.3,4.8-1c1.1-0.7,1.7-1.7,1.7-3c0-1-0.4-1.9-1.3-2.6c-0.9-0.7-2.6-1.6-5.2-2.6
		c-2.4-0.9-4.2-1.7-5.2-2.4s-1.8-1.5-2.3-2.3c-0.5-0.9-0.8-1.9-0.8-3.1c0-2.1,0.9-3.8,2.6-5.1c1.7-1.2,4.1-1.9,7.2-1.9
		c2.8,0,5.6,0.6,8.3,1.7l-1.4,3.2c-2.6-1.1-5-1.6-7.2-1.6c-1.9,0-3.3,0.3-4.3,0.9s-1.4,1.4-1.4,2.4c0,0.7,0.2,1.3,0.5,1.8
		c0.4,0.5,0.9,1,1.7,1.4c0.8,0.4,2.3,1.1,4.6,1.9c3.1,1.1,5.2,2.3,6.3,3.4C18.1,339.7,18.7,341.1,18.7,342.9z"/>
	<path d="M35.8,350.5c-3.9,0-7-1.2-9.2-3.6c-2.2-2.4-3.4-5.7-3.4-9.9c0-4.2,1-7.6,3.1-10.1c2.1-2.5,4.9-3.7,8.4-3.7
		c3.3,0,5.9,1.1,7.8,3.3c1.9,2.2,2.9,5,2.9,8.6v2.5H27.3c0.1,3.1,0.9,5.4,2.3,7c1.5,1.6,3.6,2.4,6.3,2.4c2.8,0,5.6-0.6,8.4-1.8v3.6
		c-1.4,0.6-2.7,1-4,1.3C39,350.4,37.5,350.5,35.8,350.5z M34.7,326.6c-2.1,0-3.8,0.7-5.1,2.1c-1.3,1.4-2,3.3-2.2,5.7h13.8
		c0-2.5-0.6-4.4-1.7-5.8C38.4,327.2,36.8,326.6,34.7,326.6z"/>
	<path d="M55.7,350h-4v-37.4h4V350z"/>
	<path d="M75.5,326.8h-6.7V350h-4v-23.2h-4.7V325l4.7-1.4v-1.5c0-6.5,2.8-9.7,8.5-9.7c1.4,0,3,0.3,4.9,0.8l-1,3.2
		c-1.5-0.5-2.8-0.7-3.9-0.7c-1.5,0-2.6,0.5-3.3,1.5s-1.1,2.6-1.1,4.8v1.7h6.7V326.8z"/>
	<path d="M77.6,338.7V335h11.8v3.6H77.6z"/>
	<path d="M111.4,350l-0.8-3.7h-0.2c-1.3,1.6-2.6,2.8-3.9,3.3c-1.3,0.6-2.9,0.9-4.9,0.9c-2.6,0-4.7-0.7-6.1-2
		c-1.5-1.3-2.2-3.3-2.2-5.7c0-5.3,4.2-8.1,12.7-8.4l4.5-0.1v-1.6c0-2.1-0.4-3.6-1.3-4.6s-2.3-1.5-4.3-1.5c-2.2,0-4.7,0.7-7.4,2
		l-1.2-3c1.3-0.7,2.7-1.3,4.3-1.7c1.5-0.4,3.1-0.6,4.6-0.6c3.1,0,5.5,0.7,7,2.1c1.5,1.4,2.3,3.6,2.3,6.7v18H111.4z M102.4,347.2
		c2.5,0,4.4-0.7,5.8-2c1.4-1.4,2.1-3.3,2.1-5.7v-2.4l-4,0.2c-3.2,0.1-5.5,0.6-6.9,1.5c-1.4,0.9-2.1,2.2-2.1,4.1
		c0,1.4,0.4,2.5,1.3,3.3C99.6,346.8,100.8,347.2,102.4,347.2z"/>
	<path d="M139.9,346.5h-0.2c-1.8,2.7-4.6,4-8.3,4c-3.4,0-6.1-1.2-8-3.5c-1.9-2.4-2.9-5.7-2.9-10s1-7.7,2.9-10.1
		c1.9-2.4,4.6-3.6,8-3.6c3.6,0,6.3,1.3,8.2,3.9h0.3l-0.2-1.9l-0.1-1.8v-10.7h4V350h-3.2L139.9,346.5z M132,347.2
		c2.7,0,4.7-0.7,5.9-2.2s1.8-3.9,1.8-7.2v-0.8c0-3.7-0.6-6.4-1.9-8c-1.2-1.6-3.2-2.4-5.9-2.4c-2.3,0-4.1,0.9-5.4,2.7
		c-1.2,1.8-1.9,4.4-1.9,7.7c0,3.4,0.6,5.9,1.8,7.6C127.8,346.3,129.6,347.2,132,347.2z"/>
	<path d="M169.7,350v-17c0-2.1-0.5-3.7-1.5-4.8c-1-1.1-2.5-1.6-4.6-1.6c-2.8,0-4.8,0.8-6.1,2.3c-1.3,1.5-1.9,4-1.9,7.4V350h-4v-37.4
		h4V324c0,1.4-0.1,2.5-0.2,3.4h0.2c0.8-1.3,1.9-2.3,3.3-3c1.4-0.7,3.1-1.1,5-1.1c3.2,0,5.6,0.8,7.2,2.3s2.4,4,2.4,7.3V350H169.7z"/>
	<path d="M192.5,350.5c-3.9,0-7-1.2-9.2-3.6c-2.2-2.4-3.4-5.7-3.4-9.9c0-4.2,1-7.6,3.1-10.1c2.1-2.5,4.9-3.7,8.4-3.7
		c3.3,0,5.9,1.1,7.8,3.3s2.9,5,2.9,8.6v2.5H184c0.1,3.1,0.9,5.4,2.3,7c1.5,1.6,3.6,2.4,6.3,2.4c2.8,0,5.6-0.6,8.4-1.8v3.6
		c-1.4,0.6-2.7,1-4,1.3C195.8,350.4,194.2,350.5,192.5,350.5z M191.4,326.6c-2.1,0-3.8,0.7-5.1,2.1c-1.3,1.4-2,3.3-2.2,5.7h13.8
		c0-2.5-0.6-4.4-1.7-5.8C195.1,327.2,193.5,326.6,191.4,326.6z"/>
	<path d="M225.4,342.9c0,2.4-0.9,4.3-2.7,5.7c-1.8,1.3-4.4,2-7.7,2c-3.5,0-6.2-0.6-8.2-1.7v-3.7c1.3,0.6,2.6,1.1,4.1,1.5
		c1.4,0.4,2.8,0.6,4.2,0.6c2.1,0,3.7-0.3,4.8-1c1.1-0.7,1.7-1.7,1.7-3c0-1-0.4-1.9-1.3-2.6c-0.9-0.7-2.6-1.6-5.2-2.6
		c-2.4-0.9-4.2-1.7-5.2-2.4c-1-0.7-1.8-1.5-2.3-2.3c-0.5-0.9-0.8-1.9-0.8-3.1c0-2.1,0.9-3.8,2.6-5.1c1.7-1.2,4.1-1.9,7.2-1.9
		c2.8,0,5.6,0.6,8.3,1.7l-1.4,3.2c-2.6-1.1-5-1.6-7.2-1.6c-1.9,0-3.3,0.3-4.3,0.9c-1,0.6-1.4,1.4-1.4,2.4c0,0.7,0.2,1.3,0.5,1.8
		c0.4,0.5,0.9,1,1.7,1.4c0.8,0.4,2.3,1.1,4.6,1.9c3.1,1.1,5.2,2.3,6.3,3.4C224.9,339.7,225.4,341.1,225.4,342.9z"/>
	<path d="M231.1,316.6c0-0.9,0.2-1.6,0.7-2c0.4-0.4,1-0.6,1.7-0.6c0.6,0,1.2,0.2,1.7,0.6c0.5,0.4,0.7,1.1,0.7,2c0,0.9-0.2,1.6-0.7,2
		c-0.5,0.4-1,0.7-1.7,0.7c-0.7,0-1.2-0.2-1.7-0.7C231.3,318.2,231.1,317.5,231.1,316.6z M235.4,350h-4v-26.3h4V350z"/>
	<path d="M249.1,350l-10-26.3h4.3l5.7,15.6c1.3,3.6,2,6,2.3,7.1h0.2c0.2-0.8,0.7-2.6,1.7-5.3c0.9-2.7,3-8.5,6.3-17.4h4.3l-10,26.3
		H249.1z"/>
	<path d="M278.6,350.5c-3.9,0-7-1.2-9.2-3.6c-2.2-2.4-3.4-5.7-3.4-9.9c0-4.2,1-7.6,3.1-10.1c2.1-2.5,4.9-3.7,8.4-3.7
		c3.3,0,5.9,1.1,7.8,3.3c1.9,2.2,2.9,5,2.9,8.6v2.5h-18.1c0.1,3.1,0.9,5.4,2.3,7c1.5,1.6,3.6,2.4,6.3,2.4c2.8,0,5.6-0.6,8.4-1.8v3.6
		c-1.4,0.6-2.7,1-4,1.3C281.9,350.4,280.4,350.5,278.6,350.5z M277.5,326.6c-2.1,0-3.8,0.7-5.1,2.1c-1.3,1.4-2,3.3-2.2,5.7H284
		c0-2.5-0.6-4.4-1.7-5.8C281.2,327.2,279.6,326.6,277.5,326.6z"/>
	<path d="M340.4,350v-17.1c0-2.1-0.4-3.7-1.3-4.7c-0.9-1-2.3-1.6-4.2-1.6c-2.5,0-4.3,0.7-5.5,2.1c-1.2,1.4-1.8,3.6-1.8,6.6V350h-4
		v-17.1c0-2.1-0.4-3.7-1.3-4.7c-0.9-1-2.3-1.6-4.2-1.6c-2.5,0-4.3,0.7-5.5,2.2c-1.2,1.5-1.7,3.9-1.7,7.4V350h-4v-26.3h3.2l0.6,3.6
		h0.2c0.8-1.3,1.8-2.3,3.2-3s2.9-1.1,4.6-1.1c4.1,0,6.8,1.5,8.1,4.5h0.2c0.8-1.4,1.9-2.5,3.4-3.3c1.5-0.8,3.2-1.2,5.1-1.2
		c3,0,5.2,0.8,6.7,2.3c1.5,1.5,2.2,4,2.2,7.3V350H340.4z"/>
	<path d="M368.3,350l-0.8-3.7h-0.2c-1.3,1.6-2.6,2.8-3.9,3.3c-1.3,0.6-2.9,0.9-4.9,0.9c-2.6,0-4.7-0.7-6.1-2
		c-1.5-1.3-2.2-3.3-2.2-5.7c0-5.3,4.2-8.1,12.7-8.4l4.5-0.1v-1.6c0-2.1-0.4-3.6-1.3-4.6s-2.3-1.5-4.3-1.5c-2.2,0-4.7,0.7-7.4,2
		l-1.2-3c1.3-0.7,2.7-1.3,4.3-1.7c1.5-0.4,3.1-0.6,4.6-0.6c3.1,0,5.5,0.7,7,2.1c1.5,1.4,2.3,3.6,2.3,6.7v18H368.3z M359.3,347.2
		c2.5,0,4.4-0.7,5.8-2c1.4-1.4,2.1-3.3,2.1-5.7v-2.4l-4,0.2c-3.2,0.1-5.5,0.6-6.9,1.5c-1.4,0.9-2.1,2.2-2.1,4.1
		c0,1.4,0.4,2.5,1.3,3.3C356.5,346.8,357.7,347.2,359.3,347.2z"/>
	<path d="M387.4,347.2c0.7,0,1.4-0.1,2-0.2c0.7-0.1,1.2-0.2,1.6-0.3v3c-0.4,0.2-1.1,0.4-1.9,0.5c-0.8,0.1-1.6,0.2-2.3,0.2
		c-5.1,0-7.6-2.7-7.6-8v-15.7h-3.8v-1.9l3.8-1.7l1.7-5.6h2.3v6.1h7.6v3.1h-7.6v15.5c0,1.6,0.4,2.8,1.1,3.6
		C385.1,346.8,386.1,347.2,387.4,347.2z"/>
	<path d="M406.9,350.5c-3.9,0-7-1.2-9.2-3.6c-2.2-2.4-3.4-5.7-3.4-9.9c0-4.2,1-7.6,3.1-10.1c2.1-2.5,4.9-3.7,8.4-3.7
		c3.3,0,5.9,1.1,7.8,3.3c1.9,2.2,2.9,5,2.9,8.6v2.5h-18.1c0.1,3.1,0.9,5.4,2.3,7c1.5,1.6,3.6,2.4,6.3,2.4c2.8,0,5.6-0.6,8.4-1.8v3.6
		c-1.4,0.6-2.7,1-4,1.3C410.2,350.4,408.7,350.5,406.9,350.5z M405.8,326.6c-2.1,0-3.8,0.7-5.1,2.1c-1.3,1.4-2,3.3-2.2,5.7h13.8
		c0-2.5-0.6-4.4-1.7-5.8C409.5,327.2,407.9,326.6,405.8,326.6z"/>
	<path d="M434.9,323.2c1.2,0,2.2,0.1,3.1,0.3l-0.6,3.7c-1.1-0.2-2-0.4-2.9-0.4c-2.1,0-3.9,0.9-5.5,2.6c-1.5,1.7-2.3,3.9-2.3,6.5V350
		h-4v-26.3h3.3l0.5,4.9h0.2c1-1.7,2.2-3,3.5-4C431.7,323.7,433.3,323.2,434.9,323.2z"/>
	<path d="M442.1,316.6c0-0.9,0.2-1.6,0.7-2c0.4-0.4,1-0.6,1.7-0.6c0.6,0,1.2,0.2,1.7,0.6c0.5,0.4,0.7,1.1,0.7,2c0,0.9-0.2,1.6-0.7,2
		c-0.5,0.4-1,0.7-1.7,0.7c-0.7,0-1.2-0.2-1.7-0.7C442.4,318.2,442.1,317.5,442.1,316.6z M446.5,350h-4v-26.3h4V350z"/>
	<path d="M470.6,350l-0.8-3.7h-0.2c-1.3,1.6-2.6,2.8-3.9,3.3c-1.3,0.6-2.9,0.9-4.9,0.9c-2.6,0-4.7-0.7-6.1-2
		c-1.5-1.3-2.2-3.3-2.2-5.7c0-5.3,4.2-8.1,12.7-8.4l4.5-0.1v-1.6c0-2.1-0.4-3.6-1.3-4.6s-2.3-1.5-4.3-1.5c-2.2,0-4.7,0.7-7.4,2
		l-1.2-3c1.3-0.7,2.7-1.3,4.3-1.7c1.5-0.4,3.1-0.6,4.6-0.6c3.1,0,5.5,0.7,7,2.1c1.5,1.4,2.3,3.6,2.3,6.7v18H470.6z M461.6,347.2
		c2.5,0,4.4-0.7,5.8-2c1.4-1.4,2.1-3.3,2.1-5.7v-2.4l-4,0.2c-3.2,0.1-5.5,0.6-6.9,1.5c-1.4,0.9-2.1,2.2-2.1,4.1
		c0,1.4,0.4,2.5,1.3,3.3C458.8,346.8,460,347.2,461.6,347.2z"/>
	<path d="M485.3,350h-4v-37.4h4V350z"/>
	<path d="M510.2,342.9c0,2.4-0.9,4.3-2.7,5.7s-4.4,2-7.7,2c-3.5,0-6.2-0.6-8.2-1.7v-3.7c1.3,0.6,2.6,1.1,4.1,1.5
		c1.4,0.4,2.8,0.6,4.2,0.6c2.1,0,3.7-0.3,4.8-1c1.1-0.7,1.7-1.7,1.7-3c0-1-0.4-1.9-1.3-2.6c-0.9-0.7-2.6-1.6-5.2-2.6
		c-2.4-0.9-4.2-1.7-5.2-2.4c-1-0.7-1.8-1.5-2.3-2.3c-0.5-0.9-0.8-1.9-0.8-3.1c0-2.1,0.9-3.8,2.6-5.1c1.7-1.2,4.1-1.9,7.2-1.9
		c2.8,0,5.6,0.6,8.3,1.7l-1.4,3.2c-2.6-1.1-5-1.6-7.2-1.6c-1.9,0-3.3,0.3-4.3,0.9c-1,0.6-1.4,1.4-1.4,2.4c0,0.7,0.2,1.3,0.5,1.8
		c0.4,0.5,0.9,1,1.7,1.4c0.8,0.4,2.3,1.1,4.6,1.9c3.1,1.1,5.2,2.3,6.3,3.4C509.6,339.7,510.2,341.1,510.2,342.9z"/>
</g>
</svg>
